<?xml version="1.0" encoding="iso-8859-1"?>
<!-- Generator: Adobe Illustrator 19.0.0, SVG Export Plug-In . SVG Version: 6.00 Build 0)  -->
<svg version="1.1" id="Capa_1" xmlns="http://www.w3.org/2000/svg" xmlns:xlink="http://www.w3.org/1999/xlink" x="0px" y="0px"
	 viewBox="0 0 480.01 480.01" style="enable-background:new 0 0 480.01 480.01;" xml:space="preserve">
<g>
	<g>
		<path d="M477.661,130.354l-128-128c-2.297-2.297-5.734-2.992-8.719-1.734c-2.988,1.234-4.938,4.156-4.938,7.391v16h-16
			c-4.418,0-8,3.578-8,8v16h-16c-3.234,0-6.152,1.945-7.391,4.938s-0.555,6.43,1.734,8.719l26.344,26.344H163.318l26.344-26.344
			c2.289-2.289,2.973-5.727,1.734-8.719s-4.156-4.938-7.391-4.938h-16v-16c0-4.422-3.582-8-8-8h-16v-16
			c0-3.234-1.949-6.156-4.938-7.391c-3-1.258-6.43-0.563-8.719,1.734l-128,128c-2.289,2.289-2.973,5.727-1.734,8.719
			s4.156,4.938,7.391,4.938h16v16c0,4.422,3.582,8,8,8h16v16c0,3.234,1.949,6.156,4.938,7.391c0.992,0.414,2.031,0.609,3.063,0.609
			c2.082,0,4.125-0.813,5.656-2.344l26.344-26.344V472.01c0,2.383,1.059,4.633,2.891,6.156c1.449,1.203,3.258,1.844,5.109,1.844
			c0.492,0,0.984-0.047,1.473-0.141l255.332-47.867c30.763-6.384,39.195-27.678,39.195-31.992V163.323l26.344,26.344
			c1.531,1.531,3.574,2.344,5.656,2.344c1.031,0,2.07-0.195,3.063-0.609c2.988-1.234,4.938-4.156,4.938-7.391v-16h16
			c4.418,0,8-3.578,8-8v-16h16c3.234,0,6.152-1.945,7.391-4.938S479.951,132.643,477.661,130.354z M96.005,88.01
			c-4.418,0-8,3.578-8,8v44.687l-24,24v-4.688c0-4.422-3.582-8-8-8h-16v-16c0-4.422-3.582-8-8-8h-4.688L128.005,27.323v4.688
			c0,4.422,3.582,8,8,8h16v16c0,4.422,3.582,8,8,8h4.688l-24,24H96.005z M124.693,104.01l-20.688,20.688V104.01H124.693z
			 M219.535,440.71l97.435-31.317c2.469,3.132,6.055,7.24,10.377,11.104L219.535,440.71z M376.005,397.714
			c0,6.435-14.16,18.297-24,18.297c-8.797,0-20.879-13.773-25.348-20.445c-1.992-2.969-5.711-4.266-9.102-3.172l-213.551,68.641
			V147.323l43.313-43.312h185.375l43.313,43.312V397.714z M376.005,124.698l-20.688-20.688h20.688V124.698z M448.005,128.01
			c-4.418,0-8,3.578-8,8v16h-16c-4.418,0-8,3.578-8,8v4.688l-24-24V96.01c0-4.422-3.582-8-8-8h-44.688l-24-24h4.688
			c4.418,0,8-3.578,8-8v-16h16c4.418,0,8-3.578,8-8v-4.688L452.693,128.01H448.005z"/>
	</g>
</g>
<g>
	<g>
		<path d="M304.005,160.01h-128c-4.418,0-8,3.578-8,8v144c0,4.422,3.582,8,8,8h128c4.418,0,8-3.578,8-8v-144
			C312.005,163.589,308.423,160.01,304.005,160.01z M296.005,304.01h-112v-128h112V304.01z"/>
	</g>
</g>
<g>
	<g>
		<rect x="168.005" y="120.01" width="16" height="24"/>
	</g>
</g>
<g>
	<g>
		<rect x="200.005" y="120.01" width="16" height="24"/>
	</g>
</g>
<g>
	<g>
		<rect x="232.005" y="120.01" width="16" height="24"/>
	</g>
</g>
<g>
	<g>
		<rect x="264.005" y="120.01" width="16" height="24"/>
	</g>
</g>
<g>
	<g>
		<rect x="296.005" y="120.01" width="16" height="24"/>
	</g>
</g>
<g>
	<g>
		<rect x="168.005" y="336.01" width="144" height="16"/>
	</g>
</g>
<g>
	<g>
		<rect x="168.005" y="368.01" width="40" height="16"/>
	</g>
</g>
<g>
	<g>
		<rect x="224.005" y="368.01" width="88" height="16"/>
	</g>
</g>
<g>
	<g>
		<rect x="168.005" y="400.01" width="56" height="16"/>
	</g>
</g>
<g>
</g>
<g>
</g>
<g>
</g>
<g>
</g>
<g>
</g>
<g>
</g>
<g>
</g>
<g>
</g>
<g>
</g>
<g>
</g>
<g>
</g>
<g>
</g>
<g>
</g>
<g>
</g>
<g>
</g>
</svg>
